<svg width="21" height="15" viewBox="0 0 21 15" fill="none" xmlns="http://www.w3.org/2000/svg">
<path d="M20.557 2.29488C20.4375 1.85093 20.2035 1.44616 19.8784 1.12107C19.5533 0.795975 19.1485 0.561972 18.7046 0.442476C17.0696 1.34103e-07 10.5 0 10.5 0C10.5 0 3.93035 1.34103e-07 2.29544 0.442476C1.85149 0.561972 1.44672 0.795975 1.12163 1.12107C0.79654 1.44616 0.562536 1.85093 0.44304 2.29488C0.137766 3.96224 -0.0103753 5.65456 0.000564296 7.34961C-0.0103753 9.04465 0.137766 10.737 0.44304 12.4043C0.562536 12.8483 0.79654 13.2531 1.12163 13.5781C1.44672 13.9032 1.85149 14.1372 2.29544 14.2567C3.93035 14.6992 10.5 14.6992 10.5 14.6992C10.5 14.6992 17.0696 14.6992 18.7046 14.2567C19.1485 14.1372 19.5533 13.9032 19.8784 13.5781C20.2035 13.2531 20.4375 12.8483 20.557 12.4043C20.8622 10.737 21.0104 9.04465 20.9994 7.34961C21.0104 5.65456 20.8622 3.96224 20.557 2.29488ZM8.40011 10.4994V4.19977L13.8523 7.34961L8.40011 10.4994Z" fill="white"/>
</svg>
