<svg width="20" height="18" viewBox="0 0 20 18" fill="none" xmlns="http://www.w3.org/2000/svg">
<path d="M3.99979 2.0009C3.99953 2.5313 3.78857 3.03988 3.41333 3.41474C3.03809 3.78961 2.5293 4.00006 1.9989 3.99979C1.46849 3.99953 0.959915 3.78857 0.585049 3.41333C0.210183 3.03809 -0.000264952 2.5293 2.50348e-07 1.9989C0.000265453 1.46849 0.211222 0.959915 0.586463 0.585049C0.961704 0.210183 1.47049 -0.000264952 2.0009 2.50348e-07C2.5313 0.000265453 3.03988 0.211222 3.41474 0.586463C3.78961 0.961704 4.00006 1.47049 3.99979 2.0009ZM4.05979 5.48072H0.0599971V18.0001H4.05979V5.48072ZM10.3795 5.48072H6.39967V18.0001H10.3395V11.4304C10.3395 7.7706 15.1092 7.43062 15.1092 11.4304V18.0001H19.059V10.0705C19.059 3.9008 11.9994 4.13079 10.3395 7.16063L10.3795 5.48072Z" fill="white"/>
</svg>
