<svg width="21" height="17" viewBox="0 0 21 17" fill="none" xmlns="http://www.w3.org/2000/svg">
<path d="M20.9201 2.00001C20.1501 2.35001 19.3201 2.58001 18.4601 2.69002C19.3401 2.16001 20.0201 1.32001 20.3401 0.310002C19.5101 0.810004 18.5901 1.16001 17.6201 1.36001C16.8301 0.500003 15.7201 0 14.4601 0C12.1101 0 10.1901 1.92001 10.1901 4.29002C10.1901 4.63003 10.2301 4.96003 10.3001 5.27003C6.74004 5.09003 3.57002 3.38002 1.46001 0.790004C1.09001 1.42001 0.880005 2.16001 0.880005 2.94002C0.880005 4.43002 1.63001 5.75003 2.79002 6.50004C2.08001 6.50004 1.42001 6.30004 0.840005 6.00003V6.03003C0.840005 8.11005 2.32001 9.85005 4.28002 10.2401C3.65075 10.4123 2.99011 10.4362 2.35001 10.3101C2.62162 11.1625 3.15355 11.9085 3.87104 12.443C4.58852 12.9775 5.45548 13.2738 6.35004 13.2901C4.83366 14.4905 2.95401 15.1394 1.02001 15.1301C0.680004 15.1301 0.340002 15.1101 0 15.0701C1.90001 16.2901 4.16002 17.0001 6.58004 17.0001C14.4601 17.0001 18.7901 10.4601 18.7901 4.79003C18.7901 4.60003 18.7901 4.42002 18.7801 4.23002C19.6201 3.63002 20.3401 2.87002 20.9201 2.00001Z" fill="white"/>
</svg>
